<svg width="50" height="50" viewBox="0 0 50 50" fill="none" xmlns="http://www.w3.org/2000/svg">
<rect width="50" height="50" rx="6" fill="#DBC1AC"/>
<path d="M17.3819 22.5322L16.0314 23.9244C15.7703 24.1936 15.7768 24.6236 16.046 24.8847C16.1779 25.0127 16.3484 25.0764 16.5188 25.0764C16.696 25.0764 16.8732 25.0074 17.0063 24.8702L18.3568 23.478C18.6179 23.2088 18.6115 22.7788 18.3422 22.5177C18.073 22.2565 17.6431 22.263 17.3819 22.5322Z" fill="white"/>
<path d="M22.1092 22.971C21.7342 22.971 21.4301 23.275 21.4301 23.6501V29.6264C21.4301 30.0014 21.7342 30.3055 22.1092 30.3055H22.1093C22.4843 30.3055 22.7884 30.0014 22.7884 29.6264L22.7883 23.6501C22.7883 23.275 22.4843 22.971 22.1092 22.971Z" fill="white"/>
<path d="M31.2212 12.9202H29.1839C28.8088 12.9202 28.5048 13.2242 28.5048 13.5993C28.5048 13.9743 28.8088 14.2784 29.1839 14.2784H30.9738L25.9872 19.264C25.8534 19.3978 25.6783 19.4739 25.5052 19.4739C25.5015 19.4739 25.4978 19.4739 25.4942 19.4738C25.3274 19.4707 25.157 19.3942 25.0268 19.2639L24.2283 18.4655C23.8375 18.0746 23.3186 17.848 22.8046 17.8438C22.7996 17.8438 22.7946 17.8438 22.7896 17.8438C22.2577 17.8438 21.7265 18.0763 21.3294 18.4834L19.8741 19.9453C19.6095 20.2111 19.6104 20.6411 19.8763 20.9057C20.0087 21.0376 20.182 21.1035 20.3554 21.1035C20.5297 21.1035 20.7039 21.0368 20.8366 20.9035L22.2946 19.439C22.2966 19.437 22.2986 19.435 22.3005 19.433C22.4423 19.2869 22.6272 19.2003 22.7935 19.202C22.9517 19.2033 23.1291 19.287 23.268 19.4259L24.0664 20.2243C24.4484 20.6063 24.9464 20.822 25.4689 20.8318C26.0122 20.842 26.5516 20.6205 26.9476 20.2244L31.9003 15.2727V16.9609C31.9003 17.336 32.2044 17.64 32.5795 17.64C32.9545 17.64 33.2586 17.336 33.2586 16.9609V14.9575C33.2586 13.8341 32.3446 12.9202 31.2212 12.9202Z" fill="white"/>
<path d="M17.8448 26.0272C17.4689 26.0259 17.1634 26.3303 17.1634 26.7063V29.6265C17.1634 30.0015 17.4674 30.3056 17.8425 30.3056H17.8425C18.2176 30.3056 18.5217 30.0016 18.5217 29.6265V26.7063C18.5216 26.3321 18.219 26.0285 17.8448 26.0272Z" fill="white"/>
<path d="M31.1872 18.7266C30.8122 18.7266 30.5081 19.0306 30.5081 19.4057V29.6264C30.5081 30.0015 30.8122 30.3056 31.1872 30.3056H31.1873C31.5623 30.3056 31.8664 30.0015 31.8664 29.6264V19.4057C31.8664 19.0306 31.5623 18.7266 31.1872 18.7266Z" fill="white"/>
<path d="M26.6143 22.326C26.2392 22.326 25.9352 22.63 25.9352 23.0051V29.6265C25.9352 30.0015 26.2392 30.3056 26.6143 30.3056H26.6143C26.9894 30.3056 27.2934 30.0015 27.2934 29.6265V23.0051C27.2934 22.63 26.9894 22.326 26.6143 22.326Z" fill="white"/>
<path d="M33.2578 34.4113H32.6012L32.5144 35.062L32.5144 35.062L32.5144 35.0622L32.5144 35.0623L32.5141 35.0641L32.5129 35.0729L32.5077 35.11C32.503 35.1432 32.4958 35.1927 32.4861 35.2562C32.4668 35.3834 32.4375 35.5662 32.3984 35.7861C32.3199 36.2276 32.2032 36.8101 32.0493 37.3874C31.8928 37.9743 31.7087 38.5136 31.5073 38.891C31.4158 39.0627 31.337 39.1693 31.2801 39.2281C31.2461 39.2133 31.1966 39.189 31.1298 39.149C30.9637 39.0493 30.7576 38.8928 30.5181 38.6816C30.041 38.2605 29.5018 37.6847 28.9859 37.0894C28.4732 36.4979 27.9981 35.9041 27.6502 35.4569C27.4766 35.2337 27.3354 35.0479 27.2379 34.9183C27.1892 34.8535 27.1514 34.8029 27.126 34.7686L27.0974 34.73L27.0904 34.7204L27.0888 34.7182L27.0884 34.7178L27.0884 34.7178L27.0884 34.7177L26.8637 34.4113H26.4836H14.9998C13.2048 34.4113 11.7498 32.9562 11.7498 31.1613V14C11.7498 12.2051 13.2048 10.75 14.9998 10.75H35.0643C36.8592 10.75 38.3143 12.2051 38.3143 14V31.1613C38.3143 32.9562 36.8592 34.4113 35.0643 34.4113H33.2578ZM31.234 39.269C31.234 39.2689 31.2343 39.2688 31.2348 39.2684L31.234 39.269Z" stroke="white" stroke-width="1.5"/>
</svg>
