<svg width="172" height="62" viewBox="0 0 172 62" fill="none" xmlns="http://www.w3.org/2000/svg">
<g clip-path="url(#clip0_13_360)">
<path d="M55.6712 28.024C58.3543 28.024 60.4226 30.4498 59.9663 33.1124C59.9634 33.129 59.9605 33.1457 59.9576 33.1624C59.0706 38.3252 56.8638 43.0322 53.7053 46.921C50.0922 51.3676 45.2302 54.7457 39.659 56.514C39.6643 56.5262 39.6695 56.5382 39.6748 56.5503C40.4718 58.3944 39.0953 60.4539 37.0981 60.4539H24.3705C22.3733 60.4539 20.9967 58.3944 21.7938 56.5503C21.7991 56.5382 21.8043 56.5262 21.8096 56.514C11.3666 53.2025 3.41764 44.227 1.51213 33.1646C1.04998 30.4813 3.09502 28.024 5.79928 28.024H55.6712Z" fill="url(#paint0_linear_13_360)" stroke="#634832" stroke-width="3" stroke-miterlimit="10"/>
<path d="M76.3304 37.978C74.2326 46.4302 65.998 47.4261 61.8528 47.4261C59.8816 47.4261 58.0879 46.1299 56.7488 44.6853C56.2638 44.1621 56.2192 43.3611 56.6446 42.7876C58.8525 39.8101 60.4538 36.3482 61.2595 32.5879C61.3331 32.244 61.6027 31.7626 61.8528 31.517C69.6857 23.6123 78.2071 30.4163 76.3304 37.978Z" stroke="#634832" stroke-width="3" stroke-miterlimit="10"/>
<path d="M10.5476 0.163971V22.0687C6.41719 21.6067 3.54559 18.0292 3.54559 14.1527C3.54559 12.8278 3.88107 11.4685 4.61666 10.1864L10.0565 0.699309C10.1859 0.473325 10.3537 0.296227 10.5476 0.163971Z" fill="#634832" stroke="#634832" stroke-miterlimit="10"/>
<path d="M19.3685 14.1506C19.3685 18.0273 16.499 21.6069 12.3665 22.0687V0.161865C12.5605 0.294121 12.7302 0.47316 12.8595 0.699145L18.2995 10.1863C19.033 11.4684 19.3685 12.8278 19.3685 14.1506Z" fill="#967259" stroke="#967259" stroke-miterlimit="10"/>
<path d="M29.8279 0.163971V22.0687C25.6975 21.6067 22.8259 18.0292 22.8259 14.1527C22.8259 12.8278 23.1612 11.4685 23.8968 10.1864L29.3366 0.699309C29.4662 0.473325 29.634 0.296227 29.8279 0.163971Z" fill="#634832" stroke="#634832" stroke-miterlimit="10"/>
<path d="M38.6486 14.1506C38.6486 18.0273 35.779 21.6069 31.6465 22.0687V0.161865C31.8406 0.294121 32.0103 0.47316 32.1396 0.699145L37.5794 10.1863C38.3132 11.4684 38.6486 12.8278 38.6486 14.1506Z" fill="#967259" stroke="#967259" stroke-miterlimit="10"/>
<path d="M49.1102 0.161865V22.0687C44.9777 21.6067 42.1082 18.0273 42.1082 14.1506C42.1082 12.8278 42.4435 11.4684 43.1771 10.1864L48.617 0.699308C48.7464 0.473324 48.9161 0.294121 49.1102 0.161865Z" fill="#634832" stroke="#634832" stroke-miterlimit="10"/>
<path d="M57.9309 14.1525C57.9309 18.0292 55.0593 21.6067 50.9289 22.0686V0.163971C51.1229 0.296227 51.2906 0.473323 51.42 0.699146L56.8598 10.1863C57.5954 11.4684 57.9309 12.8278 57.9309 14.1525Z" fill="#967259" stroke="#967259" stroke-miterlimit="10"/>
<path d="M98.7336 19.9057C98.2308 19.9057 97.8463 19.7642 97.5801 19.4813C97.3139 19.1983 97.1808 18.8036 97.1808 18.2973V5.36283C97.1808 4.85647 97.3213 4.46181 97.6023 4.17884C97.898 3.89588 98.2973 3.75439 98.8002 3.75439C99.2438 3.75439 99.5914 3.84375 99.8428 4.02247C100.109 4.18629 100.353 4.4767 100.575 4.89371L105.699 14.3209H104.945L110.069 4.89371C110.291 4.4767 110.528 4.18629 110.779 4.02247C111.045 3.84375 111.393 3.75439 111.822 3.75439C112.325 3.75439 112.709 3.89588 112.975 4.17884C113.256 4.46181 113.397 4.85647 113.397 5.36283V18.2973C113.397 18.8036 113.264 19.1983 112.997 19.4813C112.731 19.7642 112.347 19.9057 111.844 19.9057C111.341 19.9057 110.949 19.7642 110.668 19.4813C110.402 19.1983 110.269 18.8036 110.269 18.2973V9.24989H110.757L106.631 16.6888C106.453 16.9718 106.261 17.1878 106.054 17.3367C105.862 17.4707 105.603 17.5377 105.278 17.5377C104.952 17.5377 104.686 17.4633 104.479 17.3143C104.272 17.1654 104.087 16.9569 103.924 16.6888L99.754 9.22755H100.286V18.2973C100.286 18.8036 100.153 19.1983 99.8871 19.4813C99.6357 19.7642 99.2512 19.9057 98.7336 19.9057ZM119.962 19.9504C119.164 19.9504 118.447 19.794 117.811 19.4813C117.175 19.1685 116.679 18.7441 116.324 18.2079C115.969 17.6718 115.792 17.0686 115.792 16.3984C115.792 15.5943 115.999 14.9613 116.413 14.4997C116.827 14.0231 117.5 13.688 118.432 13.4944C119.363 13.2859 120.598 13.1816 122.136 13.1816H123.312V14.9241H122.159C121.404 14.9241 120.791 14.9688 120.317 15.0581C119.859 15.1326 119.526 15.2666 119.319 15.4603C119.127 15.6539 119.031 15.9219 119.031 16.2644C119.031 16.6814 119.171 17.0239 119.452 17.292C119.748 17.5601 120.169 17.6941 120.717 17.6941C121.146 17.6941 121.523 17.5973 121.848 17.4037C122.188 17.1952 122.454 16.9197 122.647 16.5771C122.839 16.2197 122.935 15.8177 122.935 15.3709V12.8019C122.935 12.1466 122.787 11.6849 122.491 11.4168C122.196 11.1339 121.693 10.9924 120.983 10.9924C120.584 10.9924 120.147 11.0445 119.674 11.1487C119.216 11.2381 118.705 11.3945 118.143 11.6179C117.818 11.7668 117.53 11.804 117.278 11.7296C117.027 11.6402 116.835 11.4913 116.702 11.2828C116.568 11.0594 116.502 10.8211 116.502 10.5679C116.502 10.2998 116.576 10.0467 116.724 9.80838C116.872 9.5552 117.116 9.36904 117.456 9.24989C118.151 8.96693 118.802 8.77332 119.408 8.66907C120.029 8.56482 120.598 8.51269 121.116 8.51269C122.255 8.51269 123.186 8.68396 123.911 9.0265C124.65 9.35414 125.205 9.86795 125.575 10.5679C125.944 11.253 126.129 12.1391 126.129 13.2263V18.1856C126.129 18.7366 125.996 19.1611 125.73 19.4589C125.464 19.7568 125.079 19.9057 124.577 19.9057C124.074 19.9057 123.682 19.7568 123.401 19.4589C123.135 19.1611 123.002 18.7366 123.002 18.1856V17.359L123.157 17.4931C123.068 17.9994 122.876 18.4388 122.58 18.8111C122.299 19.1685 121.937 19.4515 121.493 19.66C121.049 19.8536 120.539 19.9504 119.962 19.9504ZM133.134 19.9057C132.705 19.9057 132.328 19.794 132.002 19.5706C131.677 19.3323 131.418 18.9824 131.226 18.5207L127.876 10.7466C127.714 10.3594 127.655 10.002 127.699 9.67434C127.743 9.3318 127.899 9.06373 128.165 8.87012C128.446 8.66162 128.83 8.55737 129.318 8.55737C129.718 8.55737 130.043 8.65418 130.294 8.84778C130.546 9.0265 130.768 9.37648 130.96 9.89774L133.577 16.5995H132.868L135.596 9.8754C135.803 9.36904 136.032 9.0265 136.284 8.84778C136.535 8.65418 136.883 8.55737 137.326 8.55737C137.711 8.55737 138.014 8.66162 138.236 8.87012C138.473 9.06373 138.613 9.32436 138.657 9.652C138.717 9.97965 138.657 10.3371 138.48 10.7243L135.064 18.5207C134.871 18.9972 134.613 19.3472 134.287 19.5706C133.977 19.794 133.592 19.9057 133.134 19.9057ZM145.766 19.9504C144.48 19.9504 143.371 19.7196 142.439 19.2579C141.522 18.7813 140.812 18.1186 140.309 17.2697C139.821 16.4059 139.577 15.3932 139.577 14.2316C139.577 13.0997 139.814 12.1093 140.287 11.2604C140.76 10.3967 141.418 9.72647 142.261 9.24989C143.119 8.75843 144.088 8.51269 145.167 8.51269C145.951 8.51269 146.661 8.64673 147.297 8.9148C147.933 9.16798 148.48 9.54031 148.938 10.0318C149.397 10.5083 149.744 11.0966 149.981 11.7966C150.218 12.4817 150.336 13.2487 150.336 14.0975C150.336 14.3805 150.247 14.5965 150.07 14.7454C149.892 14.8794 149.634 14.9464 149.293 14.9464H142.328V13.204H147.918L147.563 13.5167C147.563 12.9061 147.474 12.3998 147.297 11.9976C147.119 11.5806 146.861 11.2679 146.521 11.0594C146.195 10.8509 145.788 10.7466 145.3 10.7466C144.753 10.7466 144.287 10.8732 143.903 11.1264C143.518 11.3796 143.223 11.7445 143.016 12.221C142.809 12.6976 142.705 13.271 142.705 13.9412V14.1199C142.705 15.2518 142.964 16.0858 143.481 16.6218C144.014 17.158 144.798 17.426 145.833 17.426C146.188 17.426 146.594 17.3814 147.053 17.292C147.511 17.2026 147.94 17.0612 148.34 16.8676C148.68 16.7037 148.983 16.6516 149.249 16.7112C149.515 16.7559 149.722 16.875 149.87 17.0686C150.018 17.2622 150.099 17.4856 150.114 17.7388C150.144 17.992 150.092 18.2452 149.959 18.4983C149.826 18.7366 149.604 18.9377 149.293 19.1015C148.791 19.3845 148.221 19.593 147.585 19.727C146.964 19.8759 146.358 19.9504 145.766 19.9504ZM153.97 19.9057C153.423 19.9057 153.002 19.7568 152.706 19.4589C152.425 19.1611 152.284 18.7366 152.284 18.1856V10.2552C152.284 9.70413 152.425 9.28713 152.706 9.00416C153.002 8.7063 153.408 8.55737 153.926 8.55737C154.458 8.55737 154.865 8.7063 155.146 9.00416C155.427 9.28713 155.567 9.70413 155.567 10.2552V11.5285L155.323 10.7913C155.664 10.0616 156.166 9.50307 156.832 9.11586C157.512 8.71375 158.281 8.51269 159.139 8.51269C160.011 8.51269 160.729 8.68396 161.291 9.0265C161.852 9.35414 162.275 9.8605 162.554 10.5456C162.836 11.2158 162.977 12.0721 162.977 13.1146V18.1856C162.977 18.7366 162.829 19.1611 162.534 19.4589C162.252 19.7568 161.838 19.9057 161.291 19.9057C160.759 19.9057 160.344 19.7568 160.048 19.4589C159.767 19.1611 159.627 18.7366 159.627 18.1856V13.271C159.627 12.5114 159.486 11.9679 159.205 11.6402C158.939 11.2977 158.525 11.1264 157.963 11.1264C157.253 11.1264 156.684 11.3498 156.255 11.7966C155.841 12.2434 155.634 12.8391 155.634 13.5837V18.1856C155.634 19.3323 155.079 19.9057 153.97 19.9057Z" fill="#967259"/>
<path d="M90.9734 40.4421C90.5149 40.4421 90.16 40.3155 89.9086 40.0624C89.672 39.7943 89.5536 39.4294 89.5536 38.9677V25.9662C89.5536 25.4896 89.6794 25.1322 89.9308 24.8939C90.1822 24.6407 90.5371 24.5141 90.9956 24.5141H96.3417C98.0572 24.5141 99.3808 24.9311 100.312 25.7651C101.244 26.5842 101.71 27.7385 101.71 29.2277C101.71 30.1958 101.496 31.0298 101.067 31.7298C100.653 32.4297 100.046 32.9659 99.2477 33.3382C98.4491 33.7105 97.4804 33.8967 96.3417 33.8967L96.5414 33.5616H97.2734C97.8797 33.5616 98.4047 33.7105 98.8484 34.0084C99.3069 34.3062 99.7061 34.7754 100.046 35.4158L101.71 38.5209C101.888 38.8337 101.969 39.139 101.954 39.4369C101.939 39.7347 101.828 39.9805 101.621 40.1741C101.414 40.3528 101.111 40.4421 100.712 40.4421C100.312 40.4421 99.9871 40.3602 99.7357 40.1964C99.4843 40.0177 99.2625 39.7496 99.0702 39.3922L96.8297 35.2371C96.5635 34.7307 96.2456 34.3956 95.8759 34.2318C95.5209 34.0531 95.0625 33.9637 94.5005 33.9637H92.3931V38.9677C92.3931 39.4294 92.2748 39.7943 92.0382 40.0624C91.8015 40.3155 91.4466 40.4421 90.9734 40.4421ZM92.3931 31.8415H95.8537C96.8741 31.8415 97.6431 31.633 98.1607 31.216C98.6931 30.7841 98.9593 30.1437 98.9593 29.2948C98.9593 28.4608 98.6931 27.8353 98.1607 27.4183C97.6431 26.9864 96.8741 26.7704 95.8537 26.7704H92.3931V31.8415ZM109.16 40.4868C108.036 40.4868 107.06 40.256 106.232 39.7943C105.404 39.3326 104.761 38.6773 104.302 37.8284C103.844 36.9646 103.615 35.9519 103.615 34.7903C103.615 33.9116 103.74 33.1297 103.992 32.4446C104.258 31.7447 104.635 31.1489 105.123 30.6575C105.611 30.1511 106.195 29.7713 106.875 29.5182C107.556 29.2501 108.317 29.1161 109.16 29.1161C110.284 29.1161 111.26 29.3469 112.089 29.8086C112.917 30.2703 113.56 30.9255 114.018 31.7744C114.477 32.6233 114.706 33.6286 114.706 34.7903C114.706 35.6689 114.573 36.4583 114.307 37.1582C114.055 37.8582 113.686 38.4614 113.198 38.9677C112.71 39.4592 112.126 39.839 111.445 40.107C110.765 40.3602 110.003 40.4868 109.16 40.4868ZM109.16 38.3646C109.708 38.3646 110.188 38.2305 110.602 37.9625C111.016 37.6944 111.334 37.2997 111.556 36.7785C111.793 36.2423 111.911 35.5796 111.911 34.7903C111.911 33.5988 111.66 32.7127 111.157 32.1319C110.654 31.5362 109.989 31.2383 109.16 31.2383C108.613 31.2383 108.133 31.3723 107.718 31.6404C107.304 31.8936 106.979 32.2882 106.742 32.8244C106.521 33.3456 106.41 34.0009 106.41 34.7903C106.41 35.9668 106.661 36.8604 107.164 37.471C107.667 38.0667 108.332 38.3646 109.16 38.3646ZM120.566 40.4868C119.782 40.4868 119.08 40.3379 118.459 40.04C117.852 39.7273 117.372 39.3103 117.017 38.789C116.677 38.2678 116.507 37.6795 116.507 37.0242C116.507 36.22 116.714 35.587 117.128 35.1254C117.542 34.6488 118.215 34.3062 119.146 34.0977C120.078 33.8892 121.328 33.785 122.895 33.785H124.005V35.3934H122.918C122.001 35.3934 121.269 35.4381 120.721 35.5275C120.174 35.6168 119.782 35.7732 119.546 35.9966C119.324 36.2051 119.213 36.503 119.213 36.8902C119.213 37.3816 119.383 37.7837 119.723 38.0965C120.063 38.4093 120.537 38.5656 121.143 38.5656C121.631 38.5656 122.06 38.4539 122.43 38.2305C122.814 37.9922 123.117 37.672 123.339 37.2699C123.561 36.8678 123.672 36.4061 123.672 35.8849V33.3159C123.672 32.5712 123.509 32.0351 123.184 31.7074C122.858 31.3798 122.311 31.216 121.542 31.216C121.113 31.216 120.648 31.2681 120.145 31.3723C119.657 31.4766 119.139 31.6553 118.592 31.9085C118.311 32.0425 118.06 32.0797 117.838 32.0202C117.631 31.9606 117.468 31.8415 117.35 31.6627C117.231 31.4691 117.172 31.2606 117.172 31.0372C117.172 30.8138 117.231 30.5979 117.35 30.3894C117.468 30.166 117.668 30.0022 117.949 29.8979C118.629 29.615 119.28 29.4139 119.901 29.2948C120.537 29.1756 121.113 29.1161 121.631 29.1161C122.696 29.1161 123.568 29.2799 124.249 29.6075C124.944 29.9352 125.461 30.4341 125.801 31.1043C126.142 31.7595 126.312 32.6084 126.312 33.651V39.0124C126.312 39.4741 126.201 39.8315 125.979 40.0847C125.757 40.323 125.439 40.4421 125.025 40.4421C124.611 40.4421 124.286 40.323 124.049 40.0847C123.827 39.8315 123.716 39.4741 123.716 39.0124V37.9401H123.894C123.79 38.4614 123.583 38.9156 123.273 39.3028C122.977 39.6752 122.6 39.9656 122.141 40.1741C121.683 40.3826 121.158 40.4868 120.566 40.4868ZM133.097 40.4868C132.461 40.4868 131.788 40.4198 131.078 40.2858C130.368 40.1517 129.733 39.9209 129.171 39.5932C128.934 39.4443 128.764 39.273 128.66 39.0794C128.572 38.8709 128.535 38.6699 128.549 38.4763C128.579 38.2678 128.653 38.0891 128.771 37.9401C128.904 37.7912 129.067 37.6944 129.259 37.6497C129.466 37.605 129.688 37.6423 129.925 37.7614C130.516 38.0444 131.071 38.2454 131.589 38.3646C132.106 38.4688 132.616 38.5209 133.119 38.5209C133.829 38.5209 134.354 38.4018 134.694 38.1635C135.049 37.9103 135.227 37.5827 135.227 37.1806C135.227 36.838 135.108 36.5774 134.872 36.3987C134.65 36.2051 134.31 36.0636 133.851 35.9743L131.633 35.5498C130.716 35.3711 130.014 35.036 129.525 34.5445C129.052 34.0382 128.816 33.3903 128.816 32.601C128.816 31.8861 129.008 31.2681 129.392 30.7468C129.792 30.2256 130.339 29.8235 131.034 29.5405C131.729 29.2575 132.528 29.1161 133.43 29.1161C134.08 29.1161 134.687 29.1905 135.249 29.3394C135.826 29.4735 136.38 29.6894 136.912 29.9873C137.134 30.1064 137.282 30.2628 137.356 30.4564C137.445 30.65 137.467 30.8511 137.423 31.0596C137.378 31.2532 137.29 31.4319 137.157 31.5957C137.023 31.7447 136.853 31.8415 136.646 31.8861C136.454 31.9159 136.232 31.8712 135.981 31.7521C135.522 31.5138 135.079 31.3425 134.65 31.2383C134.236 31.134 133.836 31.0819 133.452 31.0819C132.727 31.0819 132.187 31.2085 131.833 31.4617C131.492 31.7149 131.322 32.05 131.322 32.467C131.322 32.7797 131.426 33.0403 131.633 33.2488C131.84 33.4573 132.158 33.5988 132.587 33.6733L134.805 34.0977C135.766 34.2765 136.491 34.6041 136.979 35.0807C137.482 35.5573 137.733 36.1976 137.733 37.0019C137.733 38.0891 137.312 38.9454 136.469 39.5709C135.626 40.1815 134.502 40.4868 133.097 40.4868ZM144.819 40.4868C143.857 40.4868 143.051 40.323 142.401 39.9953C141.765 39.6677 141.291 39.1911 140.981 38.5656C140.67 37.9252 140.515 37.1359 140.515 36.1976V31.4394H139.361C139.007 31.4394 138.733 31.35 138.541 31.1713C138.348 30.9777 138.252 30.717 138.252 30.3894C138.252 30.0469 138.348 29.7862 138.541 29.6075C138.733 29.4288 139.007 29.3394 139.361 29.3394H140.515V27.3066C140.515 26.8449 140.633 26.4949 140.87 26.2566C141.121 26.0183 141.469 25.8992 141.913 25.8992C142.356 25.8992 142.696 26.0183 142.933 26.2566C143.17 26.4949 143.288 26.8449 143.288 27.3066V29.3394H145.639C145.994 29.3394 146.268 29.4288 146.46 29.6075C146.652 29.7862 146.748 30.0469 146.748 30.3894C146.748 30.717 146.652 30.9777 146.46 31.1713C146.268 31.35 145.994 31.4394 145.639 31.4394H143.288V36.0413C143.288 36.7561 143.443 37.2923 143.754 37.6497C144.064 38.0071 144.567 38.1859 145.262 38.1859C145.514 38.1859 145.735 38.1635 145.928 38.1188C146.12 38.0742 146.29 38.0444 146.438 38.0295C146.615 38.0146 146.763 38.0742 146.882 38.2082C147 38.3273 147.059 38.5805 147.059 38.9677C147.059 39.2656 147.007 39.5337 146.904 39.772C146.815 39.9954 146.645 40.1517 146.394 40.2411C146.201 40.3007 145.95 40.3528 145.639 40.3975C145.329 40.457 145.055 40.4868 144.819 40.4868ZM153.601 40.4868C152.374 40.4868 151.316 40.256 150.429 39.7943C149.541 39.3326 148.854 38.6773 148.366 37.8284C147.893 36.9795 147.656 35.9743 147.656 34.8126C147.656 33.6807 147.885 32.6904 148.344 31.8415C148.817 30.9926 149.46 30.3298 150.274 29.8533C151.102 29.3618 152.041 29.1161 153.091 29.1161C153.86 29.1161 154.547 29.2426 155.154 29.4958C155.775 29.749 156.3 30.1139 156.729 30.5905C157.172 31.067 157.505 31.6479 157.727 32.3329C157.964 33.0031 158.082 33.7627 158.082 34.6115C158.082 34.8796 157.986 35.0881 157.794 35.2371C157.616 35.3711 157.357 35.4381 157.017 35.4381H149.896V33.8297H156.13L155.775 34.1648C155.775 33.4797 155.671 32.9063 155.464 32.4446C155.272 31.9829 154.984 31.633 154.599 31.3947C154.23 31.1415 153.764 31.0149 153.202 31.0149C152.581 31.0149 152.048 31.1638 151.604 31.4617C151.176 31.7447 150.843 32.1542 150.606 32.6904C150.384 33.2116 150.274 33.8371 150.274 34.5669V34.7232C150.274 35.9445 150.554 36.8604 151.116 37.471C151.693 38.0667 152.536 38.3646 153.645 38.3646C154.03 38.3646 154.459 38.3199 154.932 38.2305C155.42 38.1263 155.878 37.955 156.307 37.7167C156.618 37.538 156.891 37.4635 157.128 37.4933C157.365 37.5082 157.55 37.5901 157.683 37.7391C157.831 37.888 157.919 38.0742 157.949 38.2976C157.978 38.5061 157.934 38.722 157.816 38.9454C157.712 39.1688 157.527 39.3624 157.261 39.5262C156.744 39.8539 156.145 40.0996 155.464 40.2634C154.799 40.4124 154.178 40.4868 153.601 40.4868ZM161.653 40.4421C161.209 40.4421 160.87 40.323 160.633 40.0847C160.396 39.8315 160.278 39.4741 160.278 39.0124V30.5681C160.278 30.1064 160.396 29.7564 160.633 29.5182C160.87 29.2799 161.203 29.1607 161.632 29.1607C162.059 29.1607 162.392 29.2799 162.63 29.5182C162.866 29.7564 162.984 30.1064 162.984 30.5681V32.0872L162.741 31.5287C163.066 30.7394 163.569 30.1437 164.249 29.7416C164.943 29.3246 165.728 29.1161 166.6 29.1161C167.473 29.1161 168.19 29.2799 168.751 29.6075C169.314 29.9352 169.735 30.4341 170.016 31.1043C170.298 31.7595 170.438 32.5936 170.438 33.6063V39.0124C170.438 39.4741 170.32 39.8315 170.082 40.0847C169.846 40.323 169.507 40.4421 169.063 40.4421C168.619 40.4421 168.271 40.323 168.02 40.0847C167.784 39.8315 167.665 39.4741 167.665 39.0124V33.7403C167.665 32.8914 167.502 32.2734 167.178 31.8861C166.866 31.4989 166.379 31.3053 165.713 31.3053C164.9 31.3053 164.249 31.5659 163.76 32.0872C163.287 32.5936 163.051 33.2712 163.051 34.1201V39.0124C163.051 39.9656 162.585 40.4421 161.653 40.4421Z" fill="#967259"/>
<path d="M104.836 53.7752C104.24 53.7752 103.73 53.6519 103.306 53.4048C102.883 53.158 102.557 52.8072 102.328 52.3526C102.105 51.8925 101.994 51.3509 101.994 50.728C101.994 50.2623 102.058 49.8441 102.186 49.4737C102.314 49.0979 102.498 48.778 102.738 48.5141C102.983 48.2447 103.281 48.04 103.632 47.8996C103.989 47.7594 104.39 47.6892 104.836 47.6892C105.165 47.6892 105.48 47.7342 105.78 47.8239C106.087 47.9137 106.352 48.0427 106.575 48.2111C106.669 48.2729 106.731 48.3487 106.758 48.4384C106.792 48.5225 106.798 48.604 106.775 48.6825C106.758 48.7611 106.722 48.8285 106.667 48.8845C106.611 48.935 106.538 48.9632 106.449 48.9687C106.366 48.9743 106.274 48.9434 106.173 48.8761C105.989 48.7359 105.786 48.632 105.563 48.5646C105.34 48.4973 105.106 48.4636 104.861 48.4636C104.437 48.4636 104.081 48.5535 103.791 48.733C103.501 48.907 103.281 49.1623 103.131 49.499C102.98 49.8357 102.905 50.2454 102.905 50.728C102.905 51.2107 102.98 51.6232 103.131 51.9654C103.281 52.3021 103.501 52.5603 103.791 52.7398C104.081 52.9138 104.437 53.0008 104.861 53.0008C105.106 53.0008 105.34 52.9671 105.563 52.8998C105.792 52.8269 106.006 52.7202 106.207 52.5799C106.307 52.5182 106.396 52.4902 106.474 52.4957C106.558 52.5014 106.627 52.5294 106.683 52.5799C106.739 52.6304 106.775 52.695 106.792 52.7735C106.814 52.8465 106.811 52.925 106.784 53.0092C106.761 53.0879 106.708 53.1552 106.625 53.2112C106.396 53.3964 106.126 53.5368 105.814 53.6321C105.502 53.7276 105.176 53.7752 104.836 53.7752ZM110.222 53.7752C109.664 53.7752 109.177 53.6519 108.759 53.4048C108.346 53.1523 108.026 52.7988 107.798 52.3442C107.575 51.8841 107.463 51.3454 107.463 50.728C107.463 50.2623 107.527 49.8441 107.655 49.4737C107.784 49.0979 107.967 48.778 108.207 48.5141C108.447 48.2447 108.736 48.04 109.076 47.8996C109.416 47.7594 109.798 47.6892 110.222 47.6892C110.784 47.6892 111.272 47.8127 111.684 48.0596C112.097 48.3066 112.414 48.6572 112.637 49.1118C112.866 49.5663 112.98 50.1023 112.98 50.7196C112.98 51.1855 112.916 51.6063 112.788 51.9822C112.66 52.3583 112.473 52.6809 112.228 52.9503C111.988 53.2196 111.698 53.4246 111.358 53.5648C111.018 53.7051 110.64 53.7752 110.222 53.7752ZM110.222 53.0176C110.612 53.0176 110.943 52.9279 111.216 52.7482C111.495 52.5687 111.707 52.3078 111.852 51.9654C112.002 51.6232 112.077 51.2107 112.077 50.728C112.077 50.0041 111.916 49.443 111.592 49.0444C111.269 48.646 110.812 48.4468 110.222 48.4468C109.831 48.4468 109.497 48.5366 109.219 48.7161C108.945 48.8902 108.734 49.1484 108.583 49.4906C108.438 49.833 108.366 50.2454 108.366 50.728C108.366 51.4464 108.527 52.0075 108.851 52.4115C109.179 52.8156 109.636 53.0176 110.222 53.0176ZM114.605 53.7584C114.46 53.7584 114.346 53.7192 114.262 53.6405C114.184 53.562 114.145 53.4469 114.145 53.2954V48.2363C114.145 48.0848 114.184 47.9699 114.262 47.8912C114.346 47.807 114.463 47.7649 114.613 47.7649H117.589C117.711 47.7649 117.801 47.7959 117.856 47.8575C117.918 47.9137 117.948 47.9979 117.948 48.1101C117.948 48.2279 117.918 48.3178 117.856 48.3794C117.801 48.4413 117.711 48.472 117.589 48.472H115.014V50.366H117.422C117.533 50.366 117.62 50.3969 117.681 50.4586C117.748 50.5148 117.781 50.599 117.781 50.7112C117.781 50.829 117.748 50.9188 117.681 50.9805C117.62 51.0424 117.533 51.0731 117.422 51.0731H115.014V53.2954C115.014 53.6041 114.878 53.7584 114.605 53.7584ZM119.233 53.7584C119.088 53.7584 118.974 53.7192 118.891 53.6405C118.812 53.562 118.774 53.4469 118.774 53.2954V48.2363C118.774 48.0848 118.812 47.9699 118.891 47.8912C118.974 47.807 119.091 47.7649 119.242 47.7649H122.217C122.34 47.7649 122.429 47.7959 122.485 47.8575C122.546 47.9137 122.577 47.9979 122.577 48.1101C122.577 48.2279 122.546 48.3178 122.485 48.3794C122.429 48.4413 122.34 48.472 122.217 48.472H119.643V50.366H122.05C122.162 50.366 122.248 50.3969 122.309 50.4586C122.376 50.5148 122.41 50.599 122.41 50.7112C122.41 50.829 122.376 50.9188 122.309 50.9805C122.248 51.0424 122.162 51.0731 122.05 51.0731H119.643V53.2954C119.643 53.6041 119.506 53.7584 119.233 53.7584ZM123.87 53.6995C123.72 53.6995 123.603 53.6603 123.519 53.5816C123.441 53.4974 123.402 53.3796 123.402 53.2281V48.2363C123.402 48.0848 123.441 47.9699 123.519 47.8912C123.603 47.807 123.72 47.7649 123.87 47.7649H126.921C127.038 47.7649 127.127 47.7959 127.189 47.8575C127.25 47.9137 127.28 47.9979 127.28 48.1101C127.28 48.2279 127.25 48.3178 127.189 48.3794C127.127 48.4413 127.038 48.472 126.921 48.472H124.238V50.3324H126.737C126.86 50.3324 126.949 50.3633 127.005 50.4249C127.066 50.4868 127.097 50.5737 127.097 50.6859C127.097 50.8037 127.066 50.8936 127.005 50.9553C126.949 51.0114 126.86 51.0394 126.737 51.0394H124.238V52.9924H126.921C127.038 52.9924 127.127 53.0233 127.189 53.085C127.25 53.1468 127.28 53.2337 127.28 53.3459C127.28 53.4638 127.25 53.5536 127.189 53.6153C127.127 53.6715 127.038 53.6995 126.921 53.6995H123.87ZM128.792 53.6995C128.642 53.6995 128.525 53.6603 128.441 53.5816C128.363 53.4974 128.324 53.3796 128.324 53.2281V48.2363C128.324 48.0848 128.363 47.9699 128.441 47.8912C128.525 47.807 128.642 47.7649 128.792 47.7649H131.843C131.96 47.7649 132.05 47.7959 132.111 47.8575C132.172 47.9137 132.203 47.9979 132.203 48.1101C132.203 48.2279 132.172 48.3178 132.111 48.3794C132.05 48.4413 131.96 48.472 131.843 48.472H129.16V50.3324H131.659C131.782 50.3324 131.871 50.3633 131.927 50.4249C131.988 50.4868 132.019 50.5737 132.019 50.6859C132.019 50.8037 131.988 50.8936 131.927 50.9553C131.871 51.0114 131.782 51.0394 131.659 51.0394H129.16V52.9924H131.843C131.96 52.9924 132.05 53.0233 132.111 53.085C132.172 53.1468 132.203 53.2337 132.203 53.3459C132.203 53.4638 132.172 53.5536 132.111 53.6153C132.05 53.6715 131.96 53.6995 131.843 53.6995H128.792ZM137.415 53.7752C137.158 53.7752 136.908 53.7556 136.663 53.7163C136.417 53.6771 136.186 53.6182 135.969 53.5395C135.751 53.4553 135.556 53.3543 135.384 53.2365C135.3 53.1748 135.241 53.1047 135.208 53.026C135.18 52.9475 135.172 52.8718 135.183 52.7988C135.2 52.7202 135.233 52.6529 135.283 52.5967C135.333 52.5407 135.395 52.507 135.467 52.4957C135.54 52.4789 135.62 52.5014 135.71 52.5631C135.96 52.7259 136.225 52.8465 136.504 52.925C136.782 52.998 137.086 53.0345 137.415 53.0345C137.889 53.0345 138.237 52.9503 138.46 52.7819C138.688 52.6081 138.802 52.3835 138.802 52.1085C138.802 51.8841 138.722 51.7074 138.56 51.5782C138.398 51.4435 138.128 51.337 137.749 51.2583L136.855 51.0731C136.325 50.9609 135.93 50.7757 135.668 50.5175C135.411 50.2595 135.283 49.9115 135.283 49.4737C135.283 49.21 135.336 48.9687 135.442 48.7498C135.554 48.531 135.707 48.343 135.902 48.1858C136.097 48.0231 136.331 47.8996 136.604 47.8154C136.877 47.7313 137.175 47.6892 137.498 47.6892C137.844 47.6892 138.167 47.7342 138.468 47.8239C138.775 47.9137 139.048 48.0511 139.287 48.2363C139.36 48.2868 139.407 48.3514 139.429 48.4299C139.457 48.5029 139.463 48.576 139.446 48.6488C139.435 48.7218 139.404 48.7835 139.354 48.834C139.304 48.8845 139.24 48.9154 139.162 48.9266C139.084 48.9323 138.997 48.9042 138.903 48.8424C138.685 48.6966 138.462 48.5928 138.234 48.531C138.011 48.4636 137.763 48.4299 137.49 48.4299C137.217 48.4299 136.977 48.472 136.771 48.5562C136.571 48.6404 136.414 48.7582 136.303 48.9097C136.197 49.0613 136.144 49.241 136.144 49.4485C136.144 49.6842 136.219 49.8723 136.37 50.0125C136.52 50.1528 136.771 50.2595 137.122 50.3324L138.008 50.5175C138.566 50.6354 138.981 50.8178 139.254 51.0647C139.527 51.3117 139.663 51.64 139.663 52.0496C139.663 52.3134 139.61 52.5519 139.505 52.7651C139.399 52.9728 139.248 53.1523 139.053 53.3038C138.858 53.4553 138.621 53.5732 138.343 53.6574C138.07 53.736 137.76 53.7752 137.415 53.7752ZM141.085 53.7584C140.946 53.7584 140.837 53.7192 140.759 53.6405C140.686 53.562 140.65 53.4526 140.65 53.3122V48.1522C140.65 48.0063 140.686 47.8969 140.759 47.8239C140.837 47.7454 140.946 47.706 141.085 47.706C141.224 47.706 141.33 47.7454 141.403 47.8239C141.481 47.8969 141.52 48.0063 141.52 48.1522V50.3239H144.821V48.1522C144.821 48.0063 144.858 47.8969 144.93 47.8239C145.008 47.7454 145.117 47.706 145.256 47.706C145.395 47.706 145.501 47.7454 145.574 47.8239C145.646 47.8969 145.682 48.0063 145.682 48.1522V53.3122C145.682 53.4526 145.646 53.562 145.574 53.6405C145.501 53.7192 145.395 53.7584 145.256 53.7584C145.117 53.7584 145.008 53.7192 144.93 53.6405C144.858 53.562 144.821 53.4526 144.821 53.3122V51.0563H141.52V53.3122C141.52 53.4526 141.483 53.562 141.411 53.6405C141.338 53.7192 141.23 53.7584 141.085 53.7584ZM149.616 53.7752C149.059 53.7752 148.571 53.6519 148.153 53.4048C147.741 53.1523 147.42 52.7988 147.192 52.3442C146.969 51.8841 146.858 51.3454 146.858 50.728C146.858 50.2623 146.922 49.8441 147.05 49.4737C147.178 49.0979 147.362 48.778 147.602 48.5141C147.841 48.2447 148.131 48.04 148.471 47.8996C148.811 47.7594 149.192 47.6892 149.616 47.6892C150.179 47.6892 150.666 47.8127 151.079 48.0596C151.491 48.3066 151.809 48.6572 152.032 49.1118C152.26 49.5663 152.374 50.1023 152.374 50.7196C152.374 51.1855 152.31 51.6063 152.182 51.9822C152.054 52.3583 151.867 52.6809 151.622 52.9503C151.382 53.2196 151.093 53.4246 150.753 53.5648C150.413 53.7051 150.034 53.7752 149.616 53.7752ZM149.616 53.0176C150.006 53.0176 150.338 52.9279 150.611 52.7482C150.889 52.5687 151.101 52.3078 151.246 51.9654C151.396 51.6232 151.472 51.2107 151.472 50.728C151.472 50.0041 151.31 49.443 150.987 49.0444C150.664 48.646 150.207 48.4468 149.616 48.4468C149.226 48.4468 148.892 48.5366 148.613 48.7161C148.34 48.8902 148.128 49.1484 147.978 49.4906C147.833 49.833 147.76 50.2454 147.76 50.728C147.76 51.4464 147.922 52.0075 148.245 52.4115C148.574 52.8156 149.031 53.0176 149.616 53.0176ZM153.974 53.7584C153.835 53.7584 153.726 53.7192 153.648 53.6405C153.576 53.562 153.54 53.4526 153.54 53.3122V48.2111C153.54 48.0652 153.579 47.9558 153.657 47.8828C153.735 47.8043 153.843 47.7649 153.983 47.7649H155.98C156.616 47.7649 157.106 47.9249 157.452 48.2448C157.797 48.5591 157.97 49.0023 157.97 49.5748C157.97 50.1528 157.797 50.6017 157.452 50.9216C157.106 51.236 156.616 51.393 155.98 51.393H154.409V53.3122C154.409 53.4526 154.373 53.562 154.3 53.6405C154.228 53.7192 154.119 53.7584 153.974 53.7584ZM154.409 50.6943H155.855C156.273 50.6943 156.588 50.6017 156.8 50.4165C157.017 50.2258 157.126 49.9451 157.126 49.5748C157.126 49.21 157.017 48.935 156.8 48.7498C156.588 48.5591 156.273 48.4636 155.855 48.4636H154.409V50.6943Z" fill="#967259"/>
</g>
<defs>
<linearGradient id="paint0_linear_13_360" x1="30.7382" y1="28.024" x2="30.7382" y2="60.4539" gradientUnits="userSpaceOnUse">
<stop stop-color="#967259"/>
<stop offset="1" stop-color="#634832"/>
</linearGradient>
<clipPath id="clip0_13_360">
<rect width="172" height="62" fill="white"/>
</clipPath>
</defs>
</svg>
