<svg width="301" height="76" viewBox="0 0 301 76" fill="none" xmlns="http://www.w3.org/2000/svg">
<path d="M40.9375 33.75C40.6771 37.0312 40.1562 40.3385 39.375 43.6719C38.5938 46.9531 37.6042 50.1302 36.4062 53.2031C35.2604 56.276 33.9062 59.1406 32.3438 61.7969C30.7812 64.5052 29.0365 66.849 27.1094 68.8281C25.2344 70.8073 23.2031 72.3698 21.0156 73.5156C18.8802 74.6615 16.6406 75.2344 14.2969 75.2344C13.8281 75.2344 13.099 75.1302 12.1094 74.9219C11.1719 74.7656 10.1562 74.349 9.0625 73.6719C7.96875 73.0469 6.84896 72.1094 5.70312 70.8594C4.60938 69.6094 3.64583 67.9167 2.8125 65.7812C1.97917 63.6979 1.38021 61.0938 1.01562 57.9688C0.651042 54.8438 0.651042 51.0677 1.01562 46.6406C1.64062 39.6615 2.91667 33.3333 4.84375 27.6562C6.82292 21.9271 9.0625 17.0312 11.5625 12.9688C14.1146 8.90625 16.7448 5.78125 19.4531 3.59375C22.1615 1.35417 24.5573 0.234375 26.6406 0.234375C27.474 0.234375 28.151 0.416667 28.6719 0.78125C29.2448 1.09375 29.6875 1.51042 30 2.03125C30.3646 1.92708 30.7812 1.84896 31.25 1.79688C31.7188 1.74479 32.2396 1.71875 32.8125 1.71875C34.3229 1.71875 35.651 2.5 36.7969 4.0625C37.9948 5.625 38.9583 7.8125 39.6875 10.625C40.4688 13.4375 40.9635 16.8229 41.1719 20.7812C41.4323 24.6875 41.3542 29.0104 40.9375 33.75ZM14.5312 70.7031C16.5625 70.7031 18.6458 69.6615 20.7812 67.5781C22.9167 65.4948 24.8958 62.6823 26.7188 59.1406C28.5417 55.5469 30.1042 51.3802 31.4062 46.6406C32.7083 41.901 33.5938 36.875 34.0625 31.5625C34.1667 30.1562 34.2448 28.5417 34.2969 26.7188C34.349 24.8958 34.349 23.0469 34.2969 21.1719C34.2448 19.2969 34.1146 17.4479 33.9062 15.625C33.75 13.75 33.5156 12.1094 33.2031 10.7031C32.8906 9.29688 32.5 8.15104 32.0312 7.26562C31.5625 6.38021 31.0156 5.9375 30.3906 5.9375C29.7135 5.98958 29.0365 6.19792 28.3594 6.5625C27.7865 6.875 27.1094 7.39583 26.3281 8.125C25.599 8.80208 24.8698 9.76562 24.1406 11.0156C23.9844 10.9115 23.8542 10.7552 23.75 10.5469C23.6979 10.3385 23.6198 10.1302 23.5156 9.92188C23.4115 9.71354 23.3333 9.47917 23.2812 9.21875C23.1771 9.0625 23.125 8.88021 23.125 8.67188C23.125 8.41146 23.099 8.125 23.0469 7.8125C22.0052 8.95833 20.7552 10.599 19.2969 12.7344C17.8906 14.8177 16.4583 17.4219 15 20.5469C13.5938 23.6719 12.2917 27.3698 11.0938 31.6406C9.94792 35.8594 9.14062 40.6771 8.67188 46.0938C8.25521 50.8854 8.15104 54.8698 8.35938 58.0469C8.56771 61.224 8.95833 63.75 9.53125 65.625C10.1562 67.5 10.9115 68.8021 11.7969 69.5312C12.6823 70.3125 13.5938 70.7031 14.5312 70.7031ZM55.0781 61.25C53.099 61.25 51.4844 60.9375 50.2344 60.3125C48.9844 59.6875 47.9948 58.9323 47.2656 58.0469C46.5885 57.1094 46.0938 56.1198 45.7812 55.0781C45.5208 53.9844 45.3906 52.9948 45.3906 52.1094C45.3906 50.5469 45.5208 48.9062 45.7812 47.1875C46.0417 45.4167 46.3542 43.8021 46.7188 42.3438C47.0833 40.8333 47.3958 39.5573 47.6562 38.5156C47.9688 37.474 48.1771 36.8229 48.2812 36.5625C48.75 35.0521 49.349 33.75 50.0781 32.6562C50.8594 31.5104 51.9271 30.7292 53.2812 30.3125C53.8021 30.2083 54.349 30.1042 54.9219 30C55.3906 29.9479 55.8594 29.9219 56.3281 29.9219C56.849 29.9219 57.3177 30 57.7344 30.1562C56.3281 33.75 55.2083 36.7448 54.375 39.1406C53.5938 41.5365 52.9948 43.4896 52.5781 45C52.1094 46.7188 51.8229 48.099 51.7188 49.1406C51.4583 51.4844 51.6667 53.2552 52.3438 54.4531C53.0208 55.651 54.401 56.25 56.4844 56.25C57.8385 56.25 59.1406 55.7552 60.3906 54.7656C61.6406 53.724 62.7865 52.3958 63.8281 50.7812C63.6719 49.9479 63.5938 49.0885 63.5938 48.2031C63.5938 46.5365 63.724 44.9219 63.9844 43.3594C64.2969 41.7448 64.6354 40.2604 65 38.9062C65.4167 37.5 65.8333 36.25 66.25 35.1562C66.7188 34.0625 67.1094 33.2031 67.4219 32.5781C67.9948 31.3281 68.5156 30.5729 68.9844 30.3125C69.4531 30 70.2083 29.8177 71.25 29.7656C71.6667 29.7135 72.0052 29.7135 72.2656 29.7656C72.5781 29.7656 72.8385 29.7917 73.0469 29.8438C73.6719 30 73.9844 30.3125 73.9844 30.7812C73.9844 31.6146 73.9323 32.8646 73.8281 34.5312C73.724 36.1979 73.4115 37.9167 72.8906 39.6875C72.526 41.1458 72.1615 42.3958 71.7969 43.4375C71.4844 44.4271 71.1719 45.2865 70.8594 46.0156C70.5469 46.6927 70.2344 47.2656 69.9219 47.7344C69.6094 48.151 69.3229 48.5417 69.0625 48.9062C69.1667 50.4688 69.2969 51.7188 69.4531 52.6562C69.6094 53.5938 69.7917 54.3229 70 54.8438C70.2604 55.3125 70.5469 55.651 70.8594 55.8594C71.224 56.0156 71.6146 56.0938 72.0312 56.0938C72.7604 56.0938 73.6198 55.7552 74.6094 55.0781C75.599 54.349 76.6146 53.4635 77.6562 52.4219C78.75 51.3281 79.8177 50.1562 80.8594 48.9062C81.9531 47.6042 82.9427 46.3802 83.8281 45.2344C84.7135 44.0885 85.4688 43.099 86.0938 42.2656C86.7188 41.3802 87.1094 40.8333 87.2656 40.625C87.6302 40.1562 87.9688 39.8698 88.2812 39.7656C88.6458 39.6615 88.9323 39.7135 89.1406 39.9219C89.349 40.0781 89.4531 40.3646 89.4531 40.7812C89.5052 41.1458 89.401 41.5625 89.1406 42.0312C88.099 44.0104 86.7969 46.1198 85.2344 48.3594C83.724 50.5469 82.0833 52.5781 80.3125 54.4531C78.5938 56.3281 76.849 57.8906 75.0781 59.1406C73.3073 60.3906 71.6406 61.0156 70.0781 61.0156C68.6719 61.0156 67.5521 60.5469 66.7188 59.6094C65.9375 58.6198 65.2604 57.2135 64.6875 55.3906C63.4896 57.2656 62.0833 58.724 60.4688 59.7656C58.8542 60.7552 57.0573 61.25 55.0781 61.25ZM79.9219 59.6094C79.5573 60.1823 79.1667 60.5469 78.75 60.7031C78.2812 60.9115 77.8906 60.9375 77.5781 60.7812C77.2135 60.6771 76.9792 60.4167 76.875 60C76.7708 59.5833 76.875 59.0625 77.1875 58.4375C77.3438 58.125 77.7083 57.4219 78.2812 56.3281C78.8021 55.2344 79.4531 53.9323 80.2344 52.4219C80.9635 50.8594 81.7708 49.1927 82.6562 47.4219C83.5417 45.599 84.375 43.8802 85.1562 42.2656C85.9896 40.651 86.7448 39.2188 87.4219 37.9688C88.099 36.6667 88.5938 35.7292 88.9062 35.1562C88.3333 34.6354 87.9427 34.2708 87.7344 34.0625C87.526 33.8021 87.3698 33.2812 87.2656 32.5C87.1615 31.8229 87.3177 30.9375 87.7344 29.8438C88.151 28.75 88.6979 27.7083 89.375 26.7188C90.0521 25.6771 90.8073 24.7917 91.6406 24.0625C92.474 23.3333 93.2812 22.9688 94.0625 22.9688C95.5208 22.9688 96.5365 23.4375 97.1094 24.375C97.7344 25.3125 98.099 26.276 98.2031 27.2656C98.3073 27.9427 98.2552 28.8021 98.0469 29.8438C97.8385 30.8854 97.4479 31.8229 96.875 32.6562C97.0312 32.7604 97.2396 32.8906 97.5 33.0469C97.7604 33.151 98.1771 33.2031 98.75 33.2031C99.5833 33.2031 100.156 33.151 100.469 33.0469C100.833 32.9427 101.38 32.8906 102.109 32.8906C102.995 32.8906 103.724 33.125 104.297 33.5938C104.87 34.0104 105.339 34.5573 105.703 35.2344C106.068 35.8594 106.328 36.5625 106.484 37.3438C106.693 38.0729 106.823 38.75 106.875 39.375C107.031 40.6771 106.693 42.0312 105.859 43.4375C105.026 44.8438 104.01 46.3802 102.812 48.0469C102.083 49.0885 101.354 50.2604 100.625 51.5625C99.8958 52.8646 99.5833 54.0365 99.6875 55.0781C99.7917 55.7552 99.974 56.3021 100.234 56.7188C100.495 57.1354 101.224 57.3438 102.422 57.3438C103.307 57.3438 104.271 57.0312 105.312 56.4062C106.406 55.7292 107.5 54.8958 108.594 53.9062C109.74 52.8646 110.859 51.7448 111.953 50.5469C113.047 49.2969 114.062 48.099 115 46.9531C115.938 45.7552 116.719 44.6875 117.344 43.75C118.021 42.8125 118.516 42.1354 118.828 41.7188C119.089 41.3021 119.427 41.0156 119.844 40.8594C120.26 40.7031 120.625 40.7031 120.938 40.8594C121.25 41.0156 121.432 41.3281 121.484 41.7969C121.589 42.2656 121.406 42.8906 120.938 43.6719C120.625 44.1927 120.078 45.026 119.297 46.1719C118.568 47.3177 117.656 48.5938 116.562 50C115.521 51.4062 114.349 52.8646 113.047 54.375C111.745 55.8333 110.365 57.1875 108.906 58.4375C107.5 59.6354 106.068 60.625 104.609 61.4062C103.203 62.1875 101.849 62.5781 100.547 62.5781C99.1927 62.5781 98.0729 62.3177 97.1875 61.7969C96.3021 61.276 95.5729 60.651 95 59.9219C94.4792 59.1406 94.0885 58.3073 93.8281 57.4219C93.6198 56.4844 93.5417 55.625 93.5938 54.8438C93.6458 54.2188 93.8021 53.5677 94.0625 52.8906C94.375 52.1615 94.7135 51.4323 95.0781 50.7031C95.4948 49.9219 95.9115 49.1667 96.3281 48.4375C96.7969 47.6562 97.2135 46.901 97.5781 46.1719C98.4635 44.6615 99.1667 43.3854 99.6875 42.3438C100.26 41.25 100.547 40.3385 100.547 39.6094C100.547 39.1406 100.443 38.724 100.234 38.3594C100.026 37.9948 99.6875 37.8125 99.2188 37.8125C98.9062 37.8125 98.6719 37.8385 98.5156 37.8906C98.4115 37.8906 98.2812 37.8906 98.125 37.8906C98.0208 37.8906 97.8385 37.9167 97.5781 37.9688C97.3698 37.9688 97.0312 37.9688 96.5625 37.9688C95.8854 37.9688 95.3125 37.8646 94.8438 37.6562C94.375 37.4479 93.9323 37.2917 93.5156 37.1875C93.3073 37.5521 92.8385 38.3333 92.1094 39.5312C91.3802 40.7292 90.5208 42.1354 89.5312 43.75C88.5938 45.3646 87.5781 47.0573 86.4844 48.8281C85.4427 50.599 84.4531 52.2656 83.5156 53.8281C82.5781 55.3385 81.7969 56.6406 81.1719 57.7344C80.4948 58.776 80.0781 59.401 79.9219 59.6094ZM142.578 11.0938C141.953 11.3021 141.484 11.3281 141.172 11.1719C140.859 11.0156 140.625 10.7552 140.469 10.3906C140.312 10.026 140.234 9.63542 140.234 9.21875C140.234 8.75 140.26 8.30729 140.312 7.89062C140.365 7.52604 140.443 7.10938 140.547 6.64062C140.703 6.17188 140.885 5.72917 141.094 5.3125C141.302 4.89583 141.536 4.55729 141.797 4.29688C142.109 3.98438 142.5 3.77604 142.969 3.67188C145.365 3.25521 147.682 2.94271 149.922 2.73438C152.214 2.52604 154.271 2.36979 156.094 2.26562C158.177 2.10938 160.182 2.03125 162.109 2.03125C162.526 2.03125 162.943 2.05729 163.359 2.10938C163.776 2.10938 164.193 2.10938 164.609 2.10938C165.078 2.00521 165.443 1.97917 165.703 2.03125C166.016 2.03125 166.276 2.05729 166.484 2.10938C167.995 2.16146 169.557 2.23958 171.172 2.34375C172.526 2.44792 174.036 2.57812 175.703 2.73438C177.422 2.83854 179.115 2.99479 180.781 3.20312C180.938 3.61979 180.964 4.14062 180.859 4.76562C180.807 5.07812 180.755 5.39062 180.703 5.70312C180.651 6.01562 180.521 6.30208 180.312 6.5625C180.156 6.82292 179.948 7.08333 179.688 7.34375C179.479 7.55208 179.219 7.73438 178.906 7.89062C177.135 7.83854 175.417 7.8125 173.75 7.8125C172.135 7.76042 170.703 7.73438 169.453 7.73438H165.234C164.557 10.1302 163.724 13.099 162.734 16.6406C161.745 20.1302 160.729 23.8281 159.688 27.7344C158.698 31.5885 157.734 35.4427 156.797 39.2969C155.911 43.099 155.208 46.5365 154.688 49.6094C154.167 52.5781 153.646 55.4948 153.125 58.3594C152.917 59.5573 152.682 60.8073 152.422 62.1094C152.214 63.4115 152.005 64.6875 151.797 65.9375C151.641 67.1875 151.484 68.3854 151.328 69.5312C151.172 70.6771 151.042 71.7188 150.938 72.6562C150.104 73.0729 149.323 73.3854 148.594 73.5938C147.865 73.8542 147.214 74.0365 146.641 74.1406C145.964 74.2969 145.339 74.375 144.766 74.375C143.516 74.375 142.734 74.2188 142.422 73.9062C142.161 73.6458 142.135 73.099 142.344 72.2656C142.5 71.5365 142.969 69.5573 143.75 66.3281C144.062 64.974 144.453 63.2552 144.922 61.1719C145.443 59.1406 146.042 56.6667 146.719 53.75C147.396 50.7812 148.203 47.3438 149.141 43.4375C150.078 39.4792 151.146 34.9479 152.344 29.8438L157.578 8.125C156.016 8.33333 154.479 8.56771 152.969 8.82812C151.458 9.08854 150.026 9.375 148.672 9.6875C147.37 9.94792 146.172 10.2083 145.078 10.4688C144.036 10.7292 143.203 10.9375 142.578 11.0938ZM207.109 43.75C205.547 46.0417 203.776 48.2812 201.797 50.4688C199.818 52.6042 197.708 54.5312 195.469 56.25C193.281 57.9167 191.016 59.2708 188.672 60.3125C186.38 61.3542 184.141 61.875 181.953 61.875C180.807 61.875 179.557 61.5885 178.203 61.0156C176.901 60.4948 175.703 59.6615 174.609 58.5156C173.516 57.3698 172.63 55.8854 171.953 54.0625C171.328 52.2396 171.146 50.026 171.406 47.4219C171.615 45.2865 172.266 43.0469 173.359 40.7031C174.505 38.3073 175.885 36.1198 177.5 34.1406C179.167 32.1615 181.016 30.5208 183.047 29.2188C185.13 27.9167 187.214 27.2656 189.297 27.2656C191.276 27.2656 192.708 27.7604 193.594 28.75C194.479 29.7396 194.87 30.9635 194.766 32.4219C194.609 34.0365 194.141 35.5208 193.359 36.875C192.63 38.2292 191.745 39.4531 190.703 40.5469C189.661 41.6406 188.542 42.6302 187.344 43.5156C186.198 44.401 185.104 45.2083 184.062 45.9375C182.917 46.7188 181.823 47.474 180.781 48.2031C179.74 48.8802 178.828 49.5052 178.047 50.0781C178.099 51.3802 178.333 52.474 178.75 53.3594C179.167 54.2448 179.688 54.974 180.312 55.5469C180.938 56.0677 181.641 56.4583 182.422 56.7188C183.255 56.9271 184.089 57.0312 184.922 57.0312C186.693 57.0312 188.542 56.4844 190.469 55.3906C192.396 54.2448 194.271 52.8906 196.094 51.3281C197.969 49.7135 199.688 48.0469 201.25 46.3281C202.865 44.6094 204.193 43.125 205.234 41.875C205.599 41.4583 205.964 41.224 206.328 41.1719C206.745 41.0677 207.057 41.1198 207.266 41.3281C207.526 41.4844 207.656 41.7969 207.656 42.2656C207.656 42.6823 207.474 43.1771 207.109 43.75ZM187.109 31.7188C186.484 31.7188 185.729 32.0312 184.844 32.6562C184.01 33.2812 183.177 34.1927 182.344 35.3906C181.51 36.5365 180.729 37.9688 180 39.6875C179.271 41.3542 178.724 43.2812 178.359 45.4688C178.984 45 179.661 44.5312 180.391 44.0625C181.12 43.5417 181.849 42.9948 182.578 42.4219C184.818 40.7031 186.38 39.1927 187.266 37.8906C188.151 36.5885 188.646 35.4688 188.75 34.5312C188.854 33.5417 188.75 32.8385 188.438 32.4219C188.125 31.9531 187.682 31.7188 187.109 31.7188ZM241.562 44.4531C240.833 45.4948 239.896 46.7969 238.75 48.3594C237.604 49.8698 236.406 51.4062 235.156 52.9688C233.958 54.4792 232.76 55.8854 231.562 57.1875C230.417 58.4375 229.453 59.3229 228.672 59.8438C228.151 60.1562 227.552 60.4167 226.875 60.625C226.198 60.8333 225.495 60.9635 224.766 61.0156C224.089 61.0677 223.438 61.0156 222.812 60.8594C222.188 60.7552 221.641 60.5469 221.172 60.2344C220.703 59.8698 220.312 59.349 220 58.6719C219.74 58.099 219.479 57.3438 219.219 56.4062C219.01 55.4688 218.932 54.2969 218.984 52.8906C217.734 54.974 216.354 56.5885 214.844 57.7344C213.333 58.8281 211.901 59.6354 210.547 60.1562C208.984 60.7292 207.422 61.0677 205.859 61.1719C205.13 61.1719 204.349 60.9115 203.516 60.3906C202.682 59.9219 201.979 59.1667 201.406 58.125C200.833 57.0312 200.469 55.651 200.312 53.9844C200.156 52.2656 200.365 50.2344 200.938 47.8906C201.667 44.7135 202.812 41.8229 204.375 39.2188C205.99 36.6146 207.734 34.401 209.609 32.5781C211.484 30.7031 213.333 29.2969 215.156 28.3594C216.979 27.4219 218.49 27.0052 219.688 27.1094C221.094 27.3698 222.24 27.7865 223.125 28.3594C223.854 28.8802 224.323 29.6615 224.531 30.7031C224.792 31.6927 224.375 33.0208 223.281 34.6875C224.01 34.5312 224.609 34.4271 225.078 34.375C225.599 34.3229 225.99 34.2969 226.25 34.2969C226.562 34.2969 226.771 34.3229 226.875 34.375C226.927 34.4792 226.953 34.7135 226.953 35.0781C226.953 35.3906 226.875 35.9896 226.719 36.875C226.562 37.7604 226.328 38.9583 226.016 40.4688C225.703 41.9792 225.286 43.9323 224.766 46.3281C224.661 46.7969 224.557 47.2396 224.453 47.6562C224.401 48.0208 224.323 48.4115 224.219 48.8281C224.167 49.1927 224.089 49.6354 223.984 50.1562C223.88 50.6771 223.75 51.3281 223.594 52.1094C223.542 52.5781 223.516 53.099 223.516 53.6719C223.568 54.1927 223.672 54.6875 223.828 55.1562C223.984 55.625 224.219 56.0156 224.531 56.3281C224.896 56.5885 225.391 56.7188 226.016 56.7188C226.536 56.7188 227.214 56.4062 228.047 55.7812C228.88 55.1042 229.766 54.2708 230.703 53.2812C231.641 52.2396 232.604 51.1198 233.594 49.9219C234.635 48.6719 235.599 47.474 236.484 46.3281C237.37 45.1823 238.151 44.1667 238.828 43.2812C239.557 42.3958 240.078 41.7448 240.391 41.3281C240.807 40.8594 241.224 40.599 241.641 40.5469C242.057 40.4427 242.37 40.5469 242.578 40.8594C242.786 41.1719 242.812 41.6406 242.656 42.2656C242.552 42.8906 242.188 43.6198 241.562 44.4531ZM218.672 47.8906C218.932 46.849 219.245 45.625 219.609 44.2188C219.974 42.8125 220.286 41.4583 220.547 40.1562C220.807 38.8542 220.99 37.7865 221.094 36.9531C221.25 36.0677 221.224 35.651 221.016 35.7031C220.755 35.7552 220.469 35.8333 220.156 35.9375C219.896 36.0417 219.557 36.1198 219.141 36.1719C218.724 36.224 218.307 36.3021 217.891 36.4062C218.307 35.5729 218.542 34.8958 218.594 34.375C218.698 33.8021 218.724 33.3594 218.672 33.0469C218.62 32.6823 218.516 32.3958 218.359 32.1875C217.786 31.7188 216.771 32.1094 215.312 33.3594C213.906 34.5573 212.266 36.7969 210.391 40.0781C209.609 41.4323 208.984 42.8906 208.516 44.4531C208.047 45.9635 207.708 47.3958 207.5 48.75C207.344 50.1042 207.318 51.3021 207.422 52.3438C207.526 53.3333 207.734 53.9844 208.047 54.2969C208.62 54.8698 209.271 55.1562 210 55.1562C210.729 55.1042 211.458 54.8958 212.188 54.5312C212.969 54.1146 213.724 53.5938 214.453 52.9688C215.234 52.3438 215.911 51.6927 216.484 51.0156C217.109 50.3385 217.604 49.7135 217.969 49.1406C218.385 48.5677 218.62 48.151 218.672 47.8906ZM272.734 56.4062C272.734 55.3125 272.839 54.0625 273.047 52.6562C273.307 51.25 273.62 49.8177 273.984 48.3594C274.349 46.849 274.714 45.3906 275.078 43.9844C275.443 42.5781 275.755 41.3281 276.016 40.2344C276.328 38.8802 276.302 37.8385 275.938 37.1094C275.573 36.3802 274.948 36.0156 274.062 36.0156C273.646 36.0156 272.812 36.3802 271.562 37.1094C270.365 37.8385 269.036 39.1146 267.578 40.9375C266.172 42.7083 264.766 45.1302 263.359 48.2031C262.005 51.224 260.938 55.0781 260.156 59.7656C259.167 60.2865 258.229 60.625 257.344 60.7812C256.875 60.8854 256.458 60.9635 256.094 61.0156C255.052 61.0677 254.375 60.8854 254.062 60.4688C253.75 60.1042 253.802 59.1667 254.219 57.6562C254.427 56.9271 254.792 55.7552 255.312 54.1406C255.885 52.526 256.432 50.7812 256.953 48.9062C257.474 46.9792 257.917 45.0781 258.281 43.2031C258.698 41.276 258.906 39.6094 258.906 38.2031C258.906 37.2135 258.724 36.5365 258.359 36.1719C258.047 35.8073 257.578 35.625 256.953 35.625C256.484 35.625 255.703 35.8854 254.609 36.4062C253.516 36.9271 252.292 37.9427 250.938 39.4531C249.583 40.9635 248.229 43.0729 246.875 45.7812C245.573 48.4375 244.453 51.901 243.516 56.1719V56.0156C243.411 56.4323 243.307 56.849 243.203 57.2656C243.099 57.6302 243.021 58.0208 242.969 58.4375C242.917 58.8542 242.839 59.2448 242.734 59.6094L238.828 61.3281C238.568 61.4323 238.229 61.5104 237.812 61.5625C237.448 61.6146 237.083 61.5365 236.719 61.3281C236.406 61.1719 236.172 60.8073 236.016 60.2344C235.859 59.6615 235.911 58.8021 236.172 57.6562L241.094 37.2656C241.25 36.5885 241.38 35.9375 241.484 35.3125C241.589 34.7396 241.641 34.1927 241.641 33.6719C241.693 33.099 241.667 32.6302 241.562 32.2656C242.448 31.849 243.229 31.5365 243.906 31.3281C244.583 31.1198 245.13 30.9635 245.547 30.8594C246.068 30.7031 246.51 30.625 246.875 30.625C248.542 30.625 249.089 32.0573 248.516 34.9219C248.307 35.7552 247.995 36.9792 247.578 38.5938C248.568 37.3438 249.609 36.1719 250.703 35.0781C251.849 33.9323 252.995 32.9167 254.141 32.0312C255.286 31.1458 256.432 30.4427 257.578 29.9219C258.776 29.401 259.948 29.1406 261.094 29.1406C261.979 29.1406 262.708 29.401 263.281 29.9219C263.906 30.4427 264.375 31.1458 264.688 32.0312C265.052 32.8646 265.26 33.8802 265.312 35.0781C265.365 36.224 265.312 37.4219 265.156 38.6719C265.99 37.5781 266.901 36.4844 267.891 35.3906C268.932 34.2448 270 33.2292 271.094 32.3438C272.24 31.4583 273.411 30.7292 274.609 30.1562C275.807 29.5833 277.005 29.2969 278.203 29.2969C279.609 29.2969 280.677 29.7135 281.406 30.5469C282.188 31.3802 282.708 32.4479 282.969 33.75C283.281 35.0521 283.359 36.4583 283.203 37.9688C283.099 39.4792 282.891 40.9375 282.578 42.3438L279.922 52.8906C279.349 55.4948 279.896 56.7969 281.562 56.7969C282.865 56.7969 284.297 56.1719 285.859 54.9219C287.422 53.6719 288.932 52.1875 290.391 50.4688C291.901 48.75 293.307 46.9792 294.609 45.1562C295.911 43.3333 297.005 41.875 297.891 40.7812C298.203 40.4167 298.516 40.2083 298.828 40.1562C299.193 40.1042 299.479 40.1823 299.688 40.3906C299.948 40.5469 300.078 40.8333 300.078 41.25C300.13 41.6667 300 42.1875 299.688 42.8125C298.646 44.6354 297.37 46.6667 295.859 48.9062C294.349 51.0938 292.682 53.151 290.859 55.0781C289.089 57.0052 287.188 58.6198 285.156 59.9219C283.125 61.224 281.016 61.875 278.828 61.875C278.099 61.875 277.37 61.7969 276.641 61.6406C275.964 61.4844 275.312 61.1979 274.688 60.7812C274.115 60.3646 273.646 59.8177 273.281 59.1406C272.917 58.4115 272.734 57.5 272.734 56.4062Z" fill="#100F0F"/>
</svg>
